<?xml version="1.0" encoding="UTF-8" standalone="no"?>
<!-- Created with Inkscape (http://www.inkscape.org/) -->

<svg
   xmlns:dc="http://purl.org/dc/elements/1.1/"
   xmlns:cc="http://creativecommons.org/ns#"
   xmlns:rdf="http://www.w3.org/1999/02/22-rdf-syntax-ns#"
   xmlns:svg="http://www.w3.org/2000/svg"
   xmlns="http://www.w3.org/2000/svg"
   xmlns:sodipodi="http://sodipodi.sourceforge.net/DTD/sodipodi-0.dtd"
   xmlns:inkscape="http://www.inkscape.org/namespaces/inkscape"
   width="400"
   height="400"
   id="svg2"
   version="1.1"
   inkscape:version="0.48.2 r9819"
   inkscape:export-filename="C:\Users\Kilian\Documents\PythonLibs\EFrame\ui\favicon.png"
   inkscape:export-xdpi="7.1999998"
   inkscape:export-ydpi="7.1999998"
   sodipodi:docname="icon.svg">
  <defs
     id="defs4" />
  <sodipodi:namedview
     id="base"
     pagecolor="#ffffff"
     bordercolor="#666666"
     borderopacity="1.0"
     inkscape:pageopacity="0.0"
     inkscape:pageshadow="2"
     inkscape:zoom="1.4"
     inkscape:cx="45.423807"
     inkscape:cy="201.90447"
     inkscape:document-units="px"
     inkscape:current-layer="layer1"
     showgrid="false"
     inkscape:window-width="1680"
     inkscape:window-height="988"
     inkscape:window-x="-8"
     inkscape:window-y="22"
     inkscape:window-maximized="1" />
  <metadata
     id="metadata7">
    <rdf:RDF>
      <cc:Work
         rdf:about="">
        <dc:format>image/svg+xml</dc:format>
        <dc:type
           rdf:resource="http://purl.org/dc/dcmitype/StillImage" />
        <dc:title></dc:title>
      </cc:Work>
    </rdf:RDF>
  </metadata>
  <g
     inkscape:label="Layer 1"
     inkscape:groupmode="layer"
     id="layer1"
     transform="translate(0,-652.36218)">
    <rect
       style="opacity:0.6;fill:#000080;stroke:none"
       id="rect2991-4"
       width="370"
       height="370"
       x="15"
       y="667.36218"
       ry="40"
       rx="40" />
    <rect
       style="fill:#ffffff;fill-opacity:0;stroke:none"
       id="rect3763"
       width="121.57927"
       height="107.7828"
       x="144.19931"
       y="840.54572" />
    <rect
       style="fill:#000080;stroke:none"
       id="rect2991"
       width="350"
       height="350"
       x="25"
       y="677.36218"
       ry="50"
       rx="50" />
    <g
       style="font-size:40.67480087px;font-style:normal;font-variant:normal;font-weight:bold;font-stretch:normal;text-align:start;line-height:125%;letter-spacing:0px;word-spacing:0px;writing-mode:lr-tb;text-anchor:start;fill:#ffffff;fill-opacity:1;stroke:none;font-family:Nina;-inkscape-font-specification:Nina Bold"
       id="text2985">
      <path
         sodipodi:type="inkscape:offset"
         inkscape:radius="6.4645338"
         inkscape:original="M 132 730.5625 A 10.904188 10.904188 0 0 0 121.09375 741.46875 L 121.09375 963.25 A 10.904188 10.904188 0 0 0 132 974.15625 L 268 974.15625 A 10.904188 10.904188 0 0 0 278.90625 963.25 L 278.90625 925.46875 A 10.904188 10.904188 0 0 0 268 914.5625 L 195.375 914.5625 L 195.375 879.75 L 252.625 879.75 A 10.904188 10.904188 0 0 0 263.53125 868.84375 L 263.53125 832.03125 A 10.904188 10.904188 0 0 0 252.625 821.125 L 195.375 821.125 L 195.375 789.84375 L 262.5625 789.84375 A 10.904188 10.904188 0 0 0 273.34375 780.5 L 278.78125 743.03125 A 10.904188 10.904188 0 0 0 268 730.5625 L 132 730.5625 z "
         style="font-size:320px;font-style:normal;font-variant:normal;font-weight:bold;font-stretch:normal;text-align:start;line-height:125%;letter-spacing:0px;word-spacing:0px;writing-mode:lr-tb;text-anchor:start;opacity:0.5;fill:#cccccc;fill-opacity:1;stroke:none;font-family:Fira Sans;-inkscape-font-specification:Fira Sans Bold"
         id="path3041"
         d="m 132,724.09375 c -0.29064,-5e-5 -3.08993,0.28709 -3.375,0.34375 -0.28507,0.0567 -3.01272,0.85755 -3.28125,0.96875 -0.26853,0.1112 -2.75833,1.46354 -3,1.625 -0.24167,0.16146 -2.41948,1.95073 -2.625,2.15625 -0.20552,0.20552 -1.99479,2.38333 -2.15625,2.625 -0.16146,0.24167 -1.5138,2.73147 -1.625,3 -0.1112,0.26853 -0.91209,2.99618 -0.96875,3.28125 -0.0567,0.28507 -0.3438,3.08436 -0.34375,3.375 l 0,221.78125 c -5e-5,0.29064 0.28709,3.08993 0.34375,3.375 0.0567,0.28507 0.85755,3.01272 0.96875,3.28125 0.1112,0.26853 1.46354,2.75833 1.625,3 0.16146,0.24167 1.95073,2.41948 2.15625,2.625 0.20552,0.20552 2.38333,1.99479 2.625,2.15625 0.24167,0.16146 2.73147,1.5138 3,1.625 0.26853,0.1112 2.99618,0.91209 3.28125,0.96875 0.28507,0.0567 3.08436,0.3438 3.375,0.34375 l 136,0 c 0.29064,5e-5 3.08993,-0.28709 3.375,-0.34375 0.28507,-0.0567 3.01272,-0.85755 3.28125,-0.96875 0.26853,-0.1112 2.75833,-1.46354 3,-1.625 0.24167,-0.16146 2.41948,-1.95073 2.625,-2.15625 0.20552,-0.20552 1.99479,-2.38333 2.15625,-2.625 0.16146,-0.24167 1.5138,-2.73147 1.625,-3 0.1112,-0.26853 0.91209,-2.99618 0.96875,-3.28125 0.0567,-0.28507 0.3438,-3.08436 0.34375,-3.375 l 0,-37.78125 c 5e-5,-0.29064 -0.28709,-3.08993 -0.34375,-3.375 -0.0567,-0.28507 -0.85755,-3.01272 -0.96875,-3.28125 -0.1112,-0.26853 -1.46354,-2.75833 -1.625,-3 -0.16146,-0.24167 -1.95073,-2.41948 -2.15625,-2.625 -0.20552,-0.20552 -2.38333,-1.99479 -2.625,-2.15625 -0.24167,-0.16146 -2.73147,-1.5138 -3,-1.625 -0.26853,-0.1112 -2.99618,-0.91209 -3.28125,-0.96875 -0.28507,-0.0567 -3.08436,-0.3438 -3.375,-0.34375 l -66.15625,0 0,-21.875 50.78125,0 c 0.29064,5e-5 3.08993,-0.28709 3.375,-0.34375 0.28507,-0.0567 3.01272,-0.85755 3.28125,-0.96875 0.26853,-0.1112 2.75833,-1.46354 3,-1.625 0.24167,-0.16146 2.41948,-1.95073 2.625,-2.15625 0.20552,-0.20552 1.99479,-2.38333 2.15625,-2.625 0.16146,-0.24167 1.5138,-2.73147 1.625,-3 0.1112,-0.26853 0.91209,-2.99618 0.96875,-3.28125 0.0567,-0.28507 0.3438,-3.08436 0.34375,-3.375 l 0,-36.8125 c 5e-5,-0.29064 -0.28709,-3.08993 -0.34375,-3.375 -0.0567,-0.28507 -0.85755,-3.01272 -0.96875,-3.28125 -0.1112,-0.26853 -1.46354,-2.75833 -1.625,-3 -0.16146,-0.24167 -1.95073,-2.41948 -2.15625,-2.625 -0.20552,-0.20552 -2.38333,-1.99479 -2.625,-2.15625 -0.24167,-0.16146 -2.73147,-1.5138 -3,-1.625 C 259.01272,815.85755 256.28507,815.05666 256,815 c -0.28507,-0.0567 -3.08436,-0.3438 -3.375,-0.34375 l -50.78125,0 0,-18.34375 60.71875,0 c 0.26383,-2.6e-4 2.83415,-0.23421 3.09375,-0.28125 0.2596,-0.047 2.7216,-0.72017 2.96875,-0.8125 0.24715,-0.0923 2.5544,-1.20905 2.78125,-1.34375 0.22685,-0.1347 2.33188,-1.63971 2.53125,-1.8125 0.19937,-0.17279 1.95943,-2.01334 2.125,-2.21875 0.16557,-0.20541 1.59223,-2.33099 1.71875,-2.5625 0.12652,-0.23151 1.16654,-2.59347 1.25,-2.84375 0.0835,-0.25028 0.68099,-2.73889 0.71875,-3 l 5.4375,-37.46875 c 0.0455,-0.31376 0.14725,-3.40249 0.125,-3.71875 -0.0222,-0.31626 -0.56727,-3.35196 -0.65625,-3.65625 -0.089,-0.30429 -1.25461,-3.15908 -1.40625,-3.4375 -0.15164,-0.27842 -1.91764,-2.82268 -2.125,-3.0625 -0.20736,-0.23982 -2.46514,-2.341 -2.71875,-2.53125 -0.25361,-0.19025 -2.89924,-1.74301 -3.1875,-1.875 -0.28826,-0.13199 -3.22152,-1.11981 -3.53125,-1.1875 -0.30973,-0.0677 -3.37046,-0.40596 -3.6875,-0.40625 l -136,0 z"
         transform="translate(0,0.002805)" />
      <path
         sodipodi:type="inkscape:offset"
         inkscape:radius="10.903098"
         inkscape:original="M 132 741.46875 L 132 963.25 L 268 963.25 L 268 925.46875 L 184.46875 925.46875 L 184.46875 868.84375 L 252.625 868.84375 L 252.625 832.03125 L 184.46875 832.03125 L 184.46875 778.9375 L 262.5625 778.9375 L 268 741.46875 L 132 741.46875 z "
         style="font-size:320px;font-style:normal;font-variant:normal;font-weight:bold;font-stretch:normal;text-align:start;line-height:125%;letter-spacing:0px;word-spacing:0px;writing-mode:lr-tb;text-anchor:start;fill:#cccccc;fill-opacity:1;stroke:none;font-family:Fira Sans;-inkscape-font-specification:Fira Sans Bold;opacity:0.8"
         id="path3021"
         d="m 132,730.5625 a 10.904188,10.904188 0 0 0 -10.90625,10.90625 l 0,221.78125 A 10.904188,10.904188 0 0 0 132,974.15625 l 136,0 A 10.904188,10.904188 0 0 0 278.90625,963.25 l 0,-37.78125 A 10.904188,10.904188 0 0 0 268,914.5625 l -72.625,0 0,-34.8125 57.25,0 a 10.904188,10.904188 0 0 0 10.90625,-10.90625 l 0,-36.8125 A 10.904188,10.904188 0 0 0 252.625,821.125 l -57.25,0 0,-31.28125 67.1875,0 A 10.904188,10.904188 0 0 0 273.34375,780.5 l 5.4375,-37.46875 A 10.904188,10.904188 0 0 0 268,730.5625 l -136,0 z" />
      <path
         d="m 262.55859,778.92468 -78.07617,0 0,53.11524 68.1543,0 0,36.79687 -68.1543,0 0,56.64063 83.51563,0 0,37.76367 -135.9961,0 0,-221.75781 135.9961,0 z"
         style="font-size:320px;font-family:Fira Sans;-inkscape-font-specification:Fira Sans Bold"
         id="path2987" />
    </g>
  </g>
</svg>
